<svg data-logo="logo" xmlns="http://www.w3.org/2000/svg" viewBox="0 0 273 35">
          <g id="logogram" transform="translate(0, 0.5) rotate(0)"><path d="M16.0573 0H37.1389L21.6397 22.9729H0.558105L16.0573 0Z" fill="#007AFF"></path><path d="M16.9805 25.102L10.9773 34H33.0589L48.5581 11.0271H32.2605L22.7645 25.102H16.9805Z" fill="#312ECB"></path></g>
          <g id="logotype" transform="translate(55, 0)"><path fill="#0369a1" d="M24.51 35L8.31 35L8.31 9.54L13.52 9.54L13.52 30.68L24.51 30.68L24.51 35ZM31.00 35L25.82 35L25.82 9.54L33.82 9.54L37.96 21.23Q38.21 22.05 38.55 23.34Q38.88 24.64 39.22 26.15Q39.56 27.65 39.86 29.07Q40.16 30.49 40.35 31.53L40.35 31.53L39.34 31.53Q39.53 30.51 39.83 29.10Q40.13 27.69 40.47 26.18Q40.81 24.68 41.14 23.36Q41.48 22.05 41.73 21.23L41.73 21.23L45.80 9.54L53.83 9.54L53.83 35L48.59 35L48.59 22.99Q48.59 22.17 48.62 20.92Q48.65 19.67 48.69 18.23Q48.72 16.78 48.76 15.32Q48.79 13.86 48.81 12.56L48.81 12.56L49.13 12.56Q48.81 13.98 48.41 15.49Q48.02 17.00 47.62 18.42Q47.22 19.84 46.86 21.03Q46.50 22.22 46.24 22.99L46.24 22.99L42.02 35L37.63 35L33.34 22.99Q33.09 22.22 32.73 21.05Q32.37 19.88 31.97 18.46Q31.56 17.04 31.15 15.53Q30.74 14.01 30.37 12.56L30.37 12.56L30.78 12.56Q30.80 13.79 30.83 15.24Q30.86 16.70 30.91 18.16Q30.95 19.62 30.97 20.88Q31.00 22.13 31.00 22.99L31.00 22.99L31.00 35ZM65.49 35.38L65.49 35.38Q62.43 35.38 60.16 34.44Q57.90 33.50 56.63 31.65Q55.37 29.80 55.30 27.10L55.30 27.10L60.38 27.10Q60.48 28.39 61.14 29.25Q61.81 30.11 62.92 30.54Q64.03 30.97 65.43 30.97L65.43 30.97Q66.84 30.97 67.87 30.57Q68.90 30.16 69.48 29.43Q70.07 28.69 70.07 27.72L70.07 27.72Q70.07 26.85 69.54 26.26Q69.02 25.67 68.05 25.24Q67.08 24.81 65.67 24.49L65.67 24.49L62.87 23.79Q59.64 23.00 57.81 21.32Q55.98 19.64 55.98 16.87L55.98 16.87Q55.98 14.56 57.22 12.83Q58.46 11.11 60.62 10.15Q62.79 9.19 65.55 9.19L65.55 9.19Q68.37 9.19 70.48 10.16Q72.58 11.13 73.76 12.84Q74.94 14.56 74.97 16.80L74.97 16.80L69.93 16.80Q69.79 15.26 68.62 14.42Q67.45 13.59 65.50 13.59L65.50 13.59Q64.19 13.59 63.25 13.96Q62.31 14.34 61.81 15.00Q61.32 15.67 61.32 16.53L61.32 16.53Q61.32 17.47 61.89 18.09Q62.46 18.71 63.39 19.10Q64.32 19.48 65.40 19.74L65.40 19.74L67.71 20.30Q69.31 20.66 70.70 21.28Q72.08 21.89 73.12 22.79Q74.17 23.69 74.74 24.92Q75.31 26.15 75.31 27.75L75.31 27.75Q75.31 30.06 74.15 31.78Q72.99 33.50 70.78 34.44Q68.58 35.38 65.49 35.38ZM76.88 22.49L88.47 22.49L88.47 26.57L76.88 26.57L76.88 22.49ZM96.11 35L90.89 35L90.89 9.54L100.82 9.54Q103.73 9.54 105.76 10.64Q107.80 11.74 108.86 13.68Q109.93 15.62 109.93 18.13L109.93 18.13Q109.93 20.66 108.85 22.58Q107.76 24.51 105.70 25.59Q103.64 26.68 100.70 26.68L100.70 26.68L94.31 26.68L94.31 22.47L99.87 22.47Q101.47 22.47 102.51 21.92Q103.54 21.36 104.04 20.39Q104.55 19.41 104.55 18.13L104.55 18.13Q104.55 16.85 104.04 15.88Q103.54 14.90 102.50 14.37Q101.46 13.84 99.85 13.84L99.85 13.84L96.11 13.84L96.11 35ZM111.18 9.54L116.30 9.54L116.30 35L111.18 35L111.18 9.54ZM123.72 35.38L123.72 35.38Q121.91 35.38 120.46 34.74Q119.02 34.09 118.19 32.82Q117.36 31.55 117.36 29.65L117.36 29.65Q117.36 28.06 117.95 26.98Q118.54 25.91 119.56 25.26Q120.58 24.61 121.87 24.27Q123.16 23.93 124.57 23.79L124.57 23.79Q126.23 23.62 127.25 23.47Q128.27 23.33 128.74 23.01Q129.21 22.70 129.21 22.08L129.21 22.08L129.21 21.99Q129.21 21.17 128.86 20.61Q128.52 20.05 127.86 19.75Q127.19 19.45 126.21 19.45L126.21 19.45Q125.22 19.45 124.49 19.75Q123.75 20.05 123.29 20.54Q122.83 21.04 122.61 21.65L122.61 21.65L117.91 20.87Q118.40 19.21 119.55 18.05Q120.69 16.88 122.40 16.27Q124.10 15.65 126.21 15.65L126.21 15.65Q127.77 15.65 129.22 16.02Q130.68 16.39 131.83 17.16Q132.98 17.93 133.66 19.16Q134.33 20.39 134.33 22.13L134.33 22.13L134.33 35L129.48 35L129.48 32.35L129.31 32.35Q128.85 33.24 128.08 33.91Q127.31 34.59 126.22 34.98Q125.14 35.38 123.72 35.38ZM125.17 31.77L125.17 31.77Q126.39 31.77 127.30 31.29Q128.21 30.81 128.73 29.99Q129.24 29.17 129.24 28.16L129.24 28.16L129.24 26.10Q129.02 26.27 128.56 26.40Q128.09 26.54 127.53 26.64Q126.97 26.75 126.42 26.83Q125.87 26.92 125.45 26.97L125.45 26.97Q124.51 27.10 123.79 27.41Q123.07 27.72 122.68 28.22Q122.28 28.73 122.28 29.51L122.28 29.51Q122.28 30.25 122.66 30.75Q123.04 31.26 123.68 31.51Q124.32 31.77 125.17 31.77ZM134.59 15.89L145.92 15.89L145.92 19.81L134.59 19.81L134.59 15.89ZM137.22 29.86L137.22 11.35L142.35 11.35L142.35 29.41Q142.35 30.32 142.75 30.75Q143.15 31.19 144.09 31.19L144.09 31.19Q144.38 31.19 144.91 31.11Q145.44 31.04 145.71 30.97L145.71 30.97L146.45 34.81Q145.59 35.07 144.75 35.17Q143.90 35.27 143.13 35.27L143.13 35.27Q140.26 35.27 138.74 33.87Q137.22 32.47 137.22 29.86L137.22 29.86ZM145.13 15.89L157.60 15.89L157.60 19.81L145.13 19.81L145.13 15.89ZM153.61 35L148.50 35L148.50 14.42Q148.50 12.39 149.31 11.04Q150.12 9.69 151.52 9.01Q152.92 8.34 154.70 8.34L154.70 8.34Q155.91 8.34 156.91 8.54Q157.91 8.73 158.37 8.87L158.37 8.87L157.45 12.73Q157.13 12.65 156.69 12.56Q156.25 12.48 155.74 12.48L155.74 12.48Q154.58 12.48 154.09 13.03Q153.61 13.59 153.61 14.59L153.61 14.59L153.61 35ZM167.17 35.38L167.17 35.38Q164.30 35.38 162.20 34.14Q160.10 32.90 158.96 30.68Q157.82 28.47 157.82 25.53L157.82 25.53Q157.82 22.56 158.96 20.35Q160.10 18.13 162.20 16.89Q164.30 15.65 167.17 15.65L167.17 15.65Q170.06 15.65 172.15 16.89Q174.25 18.13 175.38 20.35Q176.52 22.56 176.52 25.53L176.52 25.53Q176.52 28.47 175.38 30.68Q174.25 32.90 172.15 34.14Q170.06 35.38 167.17 35.38ZM167.17 31.34L167.17 31.34Q168.54 31.34 169.46 30.58Q170.39 29.82 170.85 28.50Q171.31 27.17 171.31 25.52L171.31 25.52Q171.31 23.82 170.85 22.51Q170.39 21.19 169.46 20.44Q168.54 19.69 167.17 19.69L167.17 19.69Q165.81 19.69 164.89 20.44Q163.98 21.19 163.52 22.51Q163.05 23.82 163.05 25.52L163.05 25.52Q163.05 27.17 163.52 28.50Q163.98 29.82 164.89 30.58Q165.81 31.34 167.17 31.34ZM182.94 35L177.82 35L177.82 15.89L182.77 15.89L182.77 19.23L182.98 19.23Q183.51 17.45 184.75 16.54Q185.99 15.64 187.59 15.64L187.59 15.64Q187.99 15.64 188.44 15.68Q188.89 15.72 189.25 15.81L189.25 15.81L189.25 20.39Q188.91 20.27 188.26 20.20Q187.61 20.13 187.03 20.13L187.03 20.13Q185.87 20.13 184.93 20.64Q183.99 21.14 183.47 22.04Q182.94 22.93 182.94 24.13L182.94 24.13L182.94 35ZM194.92 35L189.80 35L189.80 15.89L194.55 15.89L194.80 20.64L194.43 20.64Q194.87 18.88 195.73 17.77Q196.60 16.66 197.76 16.13Q198.92 15.60 200.20 15.60L200.20 15.60Q202.27 15.60 203.54 16.91Q204.80 18.22 205.40 20.95L205.40 20.95L204.80 20.95Q205.23 19.12 206.19 17.94Q207.16 16.75 208.48 16.18Q209.81 15.60 211.26 15.60L211.26 15.60Q213.02 15.60 214.40 16.37Q215.77 17.14 216.57 18.59Q217.36 20.03 217.36 22.11L217.36 22.11L217.36 35L212.23 35L212.23 23.09Q212.23 21.46 211.35 20.68Q210.47 19.89 209.19 19.89L209.19 19.89Q208.24 19.89 207.53 20.31Q206.82 20.73 206.43 21.48Q206.05 22.23 206.05 23.24L206.05 23.24L206.05 35L201.09 35L201.09 22.95Q201.09 21.55 200.26 20.72Q199.43 19.89 198.12 19.89L198.12 19.89Q197.21 19.89 196.49 20.30Q195.76 20.71 195.34 21.51Q194.92 22.30 194.92 23.45L194.92 23.45L194.92 35Z"></path></g>
          
        </svg>